HIERARCHY
ROOT Hips
{
	OFFSET -0.001795 -0.223333 0.028219
	CHANNELS 6 Xposition Yposition Zposition Zrotation Yrotation Xrotation 
	JOINT LeftUpLeg
	{
		OFFSET 0.069520 -0.091406 -0.006815
		CHANNELS 3 Zrotation Yrotation Xrotation
		JOINT LeftLeg
		{
			OFFSET 0.034277 -0.375199 -0.004496
			CHANNELS 3 Zrotation Yrotation Xrotation
			JOINT LeftFoot
			{
				OFFSET -0.013596 -0.397961 -0.043693
				CHANNELS 3 Zrotation Yrotation Xrotation
				JOINT LeftToe
				{
					OFFSET 0.026358 -0.055791 0.119288
					CHANNELS 3 Zrotation Yrotation Xrotation
					End Site
					{
						OFFSET 0.000000 0.000000 0.000000
					}
				}
			}
		}
	}
	JOINT RightUpLeg
	{
		OFFSET -0.067670 -0.090522 -0.004320
		CHANNELS 3 Zrotation Yrotation Xrotation
		JOINT RightLeg
		{
			OFFSET -0.038290 -0.382569 -0.008850
			CHANNELS 3 Zrotation Yrotation Xrotation
			JOINT RightFoot
			{
				OFFSET 0.015774 -0.398415 -0.042312
				CHANNELS 3 Zrotation Yrotation Xrotation
				JOINT RightToe
				{
					OFFSET -0.025372 -0.048144 0.123348
					CHANNELS 3 Zrotation Yrotation Xrotation
					End Site
					{
						OFFSET 0.000000 0.000000 0.000000
					}
				}
			}
		}
	}
	JOINT Spine
	{
		OFFSET -0.002533 0.108963 -0.026696
		CHANNELS 3 Zrotation Yrotation Xrotation
		JOINT Spine1
		{
			OFFSET 0.005487 0.135180 0.001092
			CHANNELS 3 Zrotation Yrotation Xrotation
			JOINT Spine2
			{
				OFFSET 0.001457 0.052922 0.025425
				CHANNELS 3 Zrotation Yrotation Xrotation
				JOINT Neck
				{
					OFFSET -0.002778 0.213870 -0.042857
					CHANNELS 3 Zrotation Yrotation Xrotation
					JOINT Head
					{
						OFFSET 0.005152 0.064970 0.051349
						CHANNELS 3 Zrotation Yrotation Xrotation
						End Site
						{
							OFFSET 0.000000 0.000000 0.000000
						}
					}
				}
				JOINT LeftShoulder
				{
					OFFSET 0.078845 0.121749 -0.034090
					CHANNELS 3 Zrotation Yrotation Xrotation
					JOINT LeftArm
					{
						OFFSET 0.090977 0.030469 -0.008868
						CHANNELS 3 Zrotation Yrotation Xrotation
						JOINT LeftForeArm
						{
							OFFSET 0.259612 -0.012772 -0.027456
							CHANNELS 3 Zrotation Yrotation Xrotation
							JOINT LeftHand
							{
								OFFSET 0.249234 0.008986 -0.001171
								CHANNELS 3 Zrotation Yrotation Xrotation
								End Site
								{
									OFFSET 0.000000 0.000000 0.000000
								}
							}
						}
					}
				}
				JOINT RightShoulder
				{
					OFFSET -0.081759 0.118833 -0.038615
					CHANNELS 3 Zrotation Yrotation Xrotation
					JOINT RightArm
					{
						OFFSET -0.096012 0.032551 -0.009143
						CHANNELS 3 Zrotation Yrotation Xrotation
						JOINT RightForeArm
						{
							OFFSET -0.253742 -0.013329 -0.021401
							CHANNELS 3 Zrotation Yrotation Xrotation
							JOINT RightHand
							{
								OFFSET -0.255298 0.007772 -0.005559
								CHANNELS 3 Zrotation Yrotation Xrotation
								End Site
								{
									OFFSET 0.000000 0.000000 0.000000
								}
							}
						}
					}
				}
			}
		}
	}
}
MOTION
Frames: 16
Frame Time: 0.050000
0.157532 0.951880 -0.016537 -3.231225 -7.771865 9.712113 10.461785 -0.022630 -13.369071 -5.134267 0.628876 -0.963254 5.107556 12.423305 16.372282 0.000000 0.000000 0.000000 -0.561622 1.804274 -17.021484 2.894017 -0.136908 5.220757 -2.664508 -11.975947 15.409742 0.000000 0.000000 0.000000 -5.863343 1.051662 26.959296 6.912811 -1.209546 -22.217518 -0.894604 -3.472880 26.198504 -3.214421 2.460073 -38.400769 0.000000 0.000000 0.000000 -18.092866 -17.092334 10.317923 -50.680106 -50.269351 14.985589 25.712605 -44.763842 -6.681640 0.000000 0.000000 0.000000 10.162606 27.173867 10.502077 57.284230 48.467644 16.753931 -26.003357 46.802768 -8.939892 0.000000 0.000000 0.000000 
0.157769 0.952013 -0.017364 -3.264163 -7.562929 10.000230 10.484396 -0.028862 -13.709360 -5.162853 0.630151 -0.907811 5.015103 12.332048 16.616860 0.000000 0.000000 0.000000 -0.531464 1.818445 -17.143305 2.781031 -0.128740 5.039496 -2.841932 -12.310315 15.659114 0.000000 0.000000 0.000000 -5.866534 1.034690 26.805554 6.781475 -1.181300 -22.120163 -0.850411 -3.369744 26.344911 -3.230931 2.492577 -38.294897 0.000000 0.000000 0.000000 -17.602842 -17.227711 10.243446 -50.853646 -51.123455 15.562659 25.669924 -44.279285 -6.605210 0.000000 0.000000 0.000000 9.838528 26.932362 10.398025 57.610629 49.009414 17.194144 -26.651526 47.107262 -9.230491 0.000000 0.000000 0.000000 
0.158103 0.952184 -0.018171 -3.342670 -7.195206 10.301246 10.523232 -0.039553 -14.049680 -5.066455 0.612043 -1.043590 4.865965 12.175964 16.838541 0.000000 0.000000 0.000000 -0.475287 1.829677 -17.241151 2.689454 -0.131211 4.602634 -3.019546 -12.667236 16.134946 0.000000 0.000000 0.000000 -5.744638 0.978879 26.838942 6.635884 -1.129647 -22.219059 -0.753188 -3.214500 26.395428 -3.233087 2.540657 -38.338199 0.000000 0.000000 0.000000 -17.062151 -17.555366 10.222955 -50.735855 -51.817604 15.933028 25.090360 -43.521511 -6.325129 0.000000 0.000000 0.000000 9.603045 26.780514 10.368383 57.254825 49.812050 17.536748 -26.931697 46.877107 -9.239773 0.000000 0.000000 0.000000 
0.158507 0.952120 -0.018846 -3.439064 -6.869163 10.658628 10.444194 -0.061521 -14.478904 -4.914717 0.588509 -1.169011 4.907759 12.286182 16.926341 0.000000 0.000000 0.000000 -0.558888 1.855513 -17.564299 2.726571 -0.141567 4.475645 -3.237579 -13.050137 16.420460 0.000000 0.000000 0.000000 -5.606490 0.907692 26.564477 6.582508 -1.103493 -22.279657 -0.709351 -3.050490 26.505111 -3.259297 2.588716 -38.231144 0.000000 0.000000 0.000000 -16.808789 -17.739657 10.198743 -50.684262 -52.334852 16.191604 24.154424 -42.798278 -5.910347 0.000000 0.000000 0.000000 9.424162 26.634746 10.346828 56.972769 50.146200 17.622732 -26.833144 46.874684 -9.141974 0.000000 0.000000 0.000000 
0.158865 0.952349 -0.019403 -3.493497 -6.538106 10.876644 10.514388 -0.066399 -14.789780 -4.878175 0.578701 -1.313116 4.925827 12.391922 17.297281 0.000000 0.000000 0.000000 -0.603555 1.854788 -17.640071 2.684862 -0.148418 4.085278 -3.315559 -13.210113 16.814137 0.000000 0.000000 0.000000 -5.535562 0.865935 26.555842 6.458212 -1.056800 -22.401507 -0.621826 -3.019354 26.573278 -3.230311 2.601442 -38.133680 0.000000 0.000000 0.000000 -16.299250 -17.575404 9.958588 -50.804779 -52.661541 16.460059 23.166023 -41.845792 -5.445609 0.000000 0.000000 0.000000 9.052745 26.395744 10.228025 56.902219 50.449920 17.773936 -26.265443 47.107448 -8.925904 0.000000 0.000000 0.000000 
0.159042 0.952472 -0.020000 -3.627096 -6.317365 11.056158 10.607252 -0.063730 -15.025929 -4.862109 0.572835 -1.448455 4.813206 12.249900 17.257585 0.000000 0.000000 0.000000 -0.625058 1.869655 -17.814358 2.633019 -0.145448 4.012741 -3.352356 -13.275925 16.988987 0.000000 0.000000 0.000000 -5.473206 0.827323 26.372389 6.447864 -1.052869 -22.367748 -0.502311 -2.754557 26.611950 -3.225542 2.638735 -37.749072 0.000000 0.000000 0.000000 -16.096173 -17.424126 9.755048 -50.515169 -52.857048 16.414358 21.939781 -40.825187 -4.922765 0.000000 0.000000 0.000000 9.023291 26.195883 10.204454 56.531495 50.333651 17.582637 -25.277311 47.513574 -8.550564 0.000000 0.000000 0.000000 
0.159001 0.952539 -0.020812 -3.634974 -6.073307 11.199750 10.647132 -0.069039 -15.238951 -4.873333 0.569327 -1.631480 4.607405 12.007846 17.515958 0.000000 0.000000 0.000000 -0.674852 1.866079 -17.863458 2.608105 -0.149480 3.790632 -3.479631 -13.478780 17.146447 0.000000 0.000000 0.000000 -5.497484 0.815180 26.250312 6.400417 -1.047079 -22.254583 -0.338346 -2.620807 26.643369 -3.114190 2.622633 -37.593944 0.000000 0.000000 0.000000 -15.843308 -17.243996 9.550350 -50.339358 -52.721590 16.251612 21.303638 -39.955787 -4.630220 0.000000 0.000000 0.000000 8.899467 26.013136 10.153145 56.302763 50.429089 17.565348 -24.591417 47.818173 -8.290279 0.000000 0.000000 0.000000 
0.158740 0.952446 -0.021828 -3.640965 -5.839979 11.348503 10.823358 -0.055531 -15.548845 -4.931723 0.572574 -1.666291 4.503893 11.918709 17.795788 0.000000 0.000000 0.000000 -0.737037 1.864805 -17.943820 2.532468 -0.146636 3.600563 -3.436877 -13.417602 17.380580 0.000000 0.000000 0.000000 -5.375280 0.762740 26.163279 6.130699 -0.973408 -22.345224 -0.284654 -2.619203 26.804338 -3.161142 2.655736 -37.482072 0.000000 0.000000 0.000000 -15.525572 -17.117281 9.399983 -49.791472 -52.749530 16.001836 20.725836 -38.919871 -4.342117 0.000000 0.000000 0.000000 8.658130 25.818991 10.060041 56.318624 50.575704 17.640020 -23.432320 48.533862 -7.902941 0.000000 0.000000 0.000000 
0.158430 0.952314 -0.022913 -3.575933 -5.617143 11.334005 10.765800 -0.070238 -15.696921 -4.859017 0.561554 -1.724117 4.404215 11.827170 17.983096 0.000000 0.000000 0.000000 -0.808417 1.846141 -17.879649 2.437536 -0.138733 3.523329 -3.354779 -13.258737 17.446776 0.000000 0.000000 0.000000 -5.369240 0.744199 26.118007 6.102387 -0.982823 -22.126698 -0.292318 -2.505053 26.735911 -3.067382 2.648064 -37.414709 0.000000 0.000000 0.000000 -15.362017 -17.150570 9.326651 -49.342633 -52.704960 15.769955 20.364137 -37.878846 -4.149851 0.000000 0.000000 0.000000 8.724076 25.993685 10.182875 56.240730 51.086499 17.956462 -22.676195 48.199025 -7.487722 0.000000 0.000000 0.000000 
0.158140 0.952188 -0.023920 -3.628672 -5.580711 11.165753 10.810077 -0.066335 -15.554659 -4.886144 0.563542 -1.796409 4.322471 11.724357 18.058026 0.000000 0.000000 0.000000 -0.965025 1.799952 -17.607401 2.461312 -0.146146 3.352297 -3.256097 -13.136760 17.727073 0.000000 0.000000 0.000000 -5.339007 0.733593 26.237267 6.092845 -0.981463 -22.129855 -0.262759 -2.182493 26.811294 -3.232156 2.761214 -37.043310 0.000000 0.000000 0.000000 -15.586923 -17.213299 9.321341 -48.649245 -52.529945 15.291691 19.669047 -36.885506 -3.865007 0.000000 0.000000 0.000000 9.069881 26.201613 10.381949 55.813832 51.566571 18.092934 -21.392672 47.266139 -6.743106 0.000000 0.000000 0.000000 
0.157791 0.952185 -0.024798 -3.492393 -5.576074 10.904006 10.673196 -0.084139 -15.280827 -4.821347 0.555371 -1.960619 4.353048 11.786506 18.176868 0.000000 0.000000 0.000000 -1.167571 1.752058 -17.357359 2.446948 -0.144766 3.356979 -3.048175 -12.829203 17.936215 0.000000 0.000000 0.000000 -5.454121 0.769511 26.413128 6.015676 -0.974813 -22.017380 -0.219096 -2.052807 26.932279 -3.436369 2.869493 -36.848190 0.000000 0.000000 0.000000 -15.822224 -17.201884 9.318595 -48.184604 -52.621757 15.091166 19.335868 -35.898656 -3.688838 0.000000 0.000000 0.000000 8.977772 26.264956 10.412887 56.124777 52.408708 18.739404 -20.723160 45.953392 -6.233639 0.000000 0.000000 0.000000 
0.157287 0.952210 -0.025591 -3.469600 -5.575911 10.327487 10.725150 -0.077039 -14.731429 -4.809532 0.553783 -2.083860 4.131701 11.483892 18.269116 0.000000 0.000000 0.000000 -1.195246 1.671587 -16.651728 2.445997 -0.151271 3.106381 -2.904376 -12.616059 18.106545 0.000000 0.000000 0.000000 -5.416084 0.759720 26.719053 5.832046 -0.978623 -21.522787 -0.229235 -1.807070 26.749929 -3.590881 2.967667 -36.113272 0.000000 0.000000 0.000000 -16.098080 -17.074159 9.225247 -47.506629 -52.360123 14.616853 19.041773 -35.475409 -3.591051 0.000000 0.000000 0.000000 9.358594 26.278825 10.508461 56.189640 52.887102 19.119839 -19.834096 44.527935 -5.656475 0.000000 0.000000 0.000000 
0.156753 0.952189 -0.026377 -3.470927 -5.780175 9.944952 10.696016 -0.072357 -14.221000 -4.635229 0.537459 -2.195018 4.133691 11.455085 18.226793 0.000000 0.000000 0.000000 -1.307458 1.629364 -16.326427 2.548721 -0.161396 3.136839 -2.715652 -12.341660 18.133816 0.000000 0.000000 0.000000 -5.600114 0.824945 26.814184 5.762527 -0.977834 -21.412223 -0.122510 -1.431712 26.976179 -3.619570 3.016880 -35.712078 0.000000 0.000000 0.000000 -16.365569 -16.989302 9.158196 -47.391911 -51.674885 14.146683 18.930673 -35.323831 -3.559537 0.000000 0.000000 0.000000 9.720368 26.397325 10.658148 55.977647 53.027610 19.126258 -19.310723 43.513557 -5.290768 0.000000 0.000000 0.000000 
0.156303 0.952278 -0.027138 -3.506884 -5.789522 9.467495 10.787891 -0.060296 -13.770541 -4.640485 0.538495 -2.217099 4.046734 11.347345 18.333874 0.000000 0.000000 0.000000 -1.321393 1.579927 -15.883613 2.687234 -0.177154 3.174470 -2.780193 -12.449159 18.191136 0.000000 0.000000 0.000000 -5.534453 0.801927 26.925394 5.587603 -0.979554 -20.931527 -0.082695 -1.239068 26.821663 -4.072113 3.241667 -34.142185 0.000000 0.000000 0.000000 -16.721078 -16.955352 9.137684 -46.783160 -50.647715 13.337803 19.182516 -35.270767 -3.656911 0.000000 0.000000 0.000000 10.333163 26.439858 10.802968 55.783026 52.769038 18.935205 -18.765806 43.059191 -5.023403 0.000000 0.000000 0.000000 
0.156137 0.952265 -0.027861 -3.496397 -5.737568 8.936088 10.790328 -0.060409 -13.255254 -4.522872 0.526703 -2.178320 3.946681 11.196260 18.171241 0.000000 0.000000 0.000000 -1.463411 1.520552 -15.451132 2.795646 -0.187811 3.322955 -2.675232 -12.222962 18.012699 0.000000 0.000000 0.000000 -5.476794 0.776603 27.054928 5.507936 -1.004885 -20.430440 -0.022713 -0.984197 26.753072 -4.180800 3.333576 -32.673874 0.000000 0.000000 0.000000 -17.116431 -16.940661 9.108900 -46.445387 -49.473840 12.578142 19.496113 -35.603948 -3.811277 0.000000 0.000000 0.000000 10.819826 26.515012 10.958760 55.391128 52.274676 18.513292 -18.611948 42.939041 -4.946413 0.000000 0.000000 0.000000 
0.156229 0.952538 -0.028515 -3.581042 -5.845412 8.426423 10.819618 -0.050323 -12.721331 -4.337844 0.509389 -2.134116 3.887142 11.112993 18.265513 0.000000 0.000000 0.000000 -1.513752 1.467608 -14.975853 2.996290 -0.208228 3.474765 -2.899456 -12.593855 18.012859 0.000000 0.000000 0.000000 -5.398055 0.756858 27.190965 5.403616 -1.015598 -20.060389 0.131463 -0.633069 26.763878 -4.608065 3.595379 -31.269963 0.000000 0.000000 0.000000 -17.597975 -16.894244 9.079031 -46.194039 -48.198293 11.818665 20.134892 -36.389420 -4.113202 0.000000 0.000000 0.000000 11.210760 26.526713 11.072752 55.312746 51.731726 18.204690 -18.717941 42.975458 -4.975646 0.000000 0.000000 0.000000 
